<mxfile host="app.diagrams.net" modified="2023-06-18T23:58:23.351Z" agent="Mozilla/5.0 (Windows NT 10.0; Win64; x64) AppleWebKit/537.36 (KHTML, like Gecko) Chrome/114.0.0.0 Safari/537.36" etag="LLBkl-Gt4I3dOoiZsY-c" version="21.5.0" type="github">
  <diagram id="C5RBs43oDa-KdzZeNtuy" name="Page-1">
    <mxGraphModel dx="1877" dy="541" grid="1" gridSize="10" guides="1" tooltips="1" connect="1" arrows="1" fold="1" page="1" pageScale="1" pageWidth="827" pageHeight="1169" math="0" shadow="0">
      <root>
        <mxCell id="WIyWlLk6GJQsqaUBKTNV-0" />
        <mxCell id="WIyWlLk6GJQsqaUBKTNV-1" parent="WIyWlLk6GJQsqaUBKTNV-0" />
        <mxCell id="1X8LrqAUc5PAFHGcHuet-4" value="Pessoa" style="swimlane;fontStyle=1;align=center;verticalAlign=top;childLayout=stackLayout;horizontal=1;startSize=26;horizontalStack=0;resizeParent=1;resizeParentMax=0;resizeLast=0;collapsible=1;marginBottom=0;whiteSpace=wrap;html=1;" parent="WIyWlLk6GJQsqaUBKTNV-1" vertex="1">
          <mxGeometry x="299" y="46" width="230" height="398" as="geometry" />
        </mxCell>
        <mxCell id="1X8LrqAUc5PAFHGcHuet-5" value="# proximo : Pessoa*" style="text;strokeColor=none;fillColor=none;align=left;verticalAlign=top;spacingLeft=4;spacingRight=4;overflow=hidden;rotatable=0;points=[[0,0.5],[1,0.5]];portConstraint=eastwest;whiteSpace=wrap;html=1;" parent="1X8LrqAUc5PAFHGcHuet-4" vertex="1">
          <mxGeometry y="26" width="230" height="26" as="geometry" />
        </mxCell>
        <mxCell id="1X8LrqAUc5PAFHGcHuet-8" value="# nome : string" style="text;strokeColor=none;fillColor=none;align=left;verticalAlign=top;spacingLeft=4;spacingRight=4;overflow=hidden;rotatable=0;points=[[0,0.5],[1,0.5]];portConstraint=eastwest;whiteSpace=wrap;html=1;" parent="1X8LrqAUc5PAFHGcHuet-4" vertex="1">
          <mxGeometry y="52" width="230" height="26" as="geometry" />
        </mxCell>
        <mxCell id="1X8LrqAUc5PAFHGcHuet-11" value="# funcao : string" style="text;strokeColor=none;fillColor=none;align=left;verticalAlign=top;spacingLeft=4;spacingRight=4;overflow=hidden;rotatable=0;points=[[0,0.5],[1,0.5]];portConstraint=eastwest;whiteSpace=wrap;html=1;" parent="1X8LrqAUc5PAFHGcHuet-4" vertex="1">
          <mxGeometry y="78" width="230" height="26" as="geometry" />
        </mxCell>
        <mxCell id="1X8LrqAUc5PAFHGcHuet-6" value="" style="line;strokeWidth=1;fillColor=none;align=left;verticalAlign=middle;spacingTop=-1;spacingLeft=3;spacingRight=3;rotatable=0;labelPosition=right;points=[];portConstraint=eastwest;strokeColor=inherit;" parent="1X8LrqAUc5PAFHGcHuet-4" vertex="1">
          <mxGeometry y="104" width="230" height="8" as="geometry" />
        </mxCell>
        <mxCell id="1X8LrqAUc5PAFHGcHuet-13" value="+ Pessoa()" style="text;strokeColor=none;fillColor=none;align=left;verticalAlign=top;spacingLeft=4;spacingRight=4;overflow=hidden;rotatable=0;points=[[0,0.5],[1,0.5]];portConstraint=eastwest;whiteSpace=wrap;html=1;" parent="1X8LrqAUc5PAFHGcHuet-4" vertex="1">
          <mxGeometry y="112" width="230" height="26" as="geometry" />
        </mxCell>
        <mxCell id="1X8LrqAUc5PAFHGcHuet-7" value="+ Pessoa(nome, funcao)" style="text;strokeColor=none;fillColor=none;align=left;verticalAlign=top;spacingLeft=4;spacingRight=4;overflow=hidden;rotatable=0;points=[[0,0.5],[1,0.5]];portConstraint=eastwest;whiteSpace=wrap;html=1;" parent="1X8LrqAUc5PAFHGcHuet-4" vertex="1">
          <mxGeometry y="138" width="230" height="26" as="geometry" />
        </mxCell>
        <mxCell id="1X8LrqAUc5PAFHGcHuet-14" value="+ Pessoa(proximo, nome, funcao)" style="text;strokeColor=none;fillColor=none;align=left;verticalAlign=top;spacingLeft=4;spacingRight=4;overflow=hidden;rotatable=0;points=[[0,0.5],[1,0.5]];portConstraint=eastwest;whiteSpace=wrap;html=1;" parent="1X8LrqAUc5PAFHGcHuet-4" vertex="1">
          <mxGeometry y="164" width="230" height="26" as="geometry" />
        </mxCell>
        <mxCell id="1X8LrqAUc5PAFHGcHuet-21" value="+ ~Pessoa()" style="text;strokeColor=none;fillColor=none;align=left;verticalAlign=top;spacingLeft=4;spacingRight=4;overflow=hidden;rotatable=0;points=[[0,0.5],[1,0.5]];portConstraint=eastwest;whiteSpace=wrap;html=1;" parent="1X8LrqAUc5PAFHGcHuet-4" vertex="1">
          <mxGeometry y="190" width="230" height="26" as="geometry" />
        </mxCell>
        <mxCell id="1X8LrqAUc5PAFHGcHuet-15" value="+&amp;nbsp;setProximo(proximo) : void" style="text;strokeColor=none;fillColor=none;align=left;verticalAlign=top;spacingLeft=4;spacingRight=4;overflow=hidden;rotatable=0;points=[[0,0.5],[1,0.5]];portConstraint=eastwest;whiteSpace=wrap;html=1;" parent="1X8LrqAUc5PAFHGcHuet-4" vertex="1">
          <mxGeometry y="216" width="230" height="26" as="geometry" />
        </mxCell>
        <mxCell id="1X8LrqAUc5PAFHGcHuet-17" value="+&amp;nbsp;getProximo() : Pessoa*" style="text;strokeColor=none;fillColor=none;align=left;verticalAlign=top;spacingLeft=4;spacingRight=4;overflow=hidden;rotatable=0;points=[[0,0.5],[1,0.5]];portConstraint=eastwest;whiteSpace=wrap;html=1;" parent="1X8LrqAUc5PAFHGcHuet-4" vertex="1">
          <mxGeometry y="242" width="230" height="26" as="geometry" />
        </mxCell>
        <mxCell id="1X8LrqAUc5PAFHGcHuet-18" value="+&amp;nbsp;setNome(nome) : void" style="text;strokeColor=none;fillColor=none;align=left;verticalAlign=top;spacingLeft=4;spacingRight=4;overflow=hidden;rotatable=0;points=[[0,0.5],[1,0.5]];portConstraint=eastwest;whiteSpace=wrap;html=1;" parent="1X8LrqAUc5PAFHGcHuet-4" vertex="1">
          <mxGeometry y="268" width="230" height="26" as="geometry" />
        </mxCell>
        <mxCell id="1X8LrqAUc5PAFHGcHuet-19" value="+ getNome() : string" style="text;strokeColor=none;fillColor=none;align=left;verticalAlign=top;spacingLeft=4;spacingRight=4;overflow=hidden;rotatable=0;points=[[0,0.5],[1,0.5]];portConstraint=eastwest;whiteSpace=wrap;html=1;" parent="1X8LrqAUc5PAFHGcHuet-4" vertex="1">
          <mxGeometry y="294" width="230" height="26" as="geometry" />
        </mxCell>
        <mxCell id="1X8LrqAUc5PAFHGcHuet-23" value="+ setFuncao(funcao) : void" style="text;strokeColor=none;fillColor=none;align=left;verticalAlign=top;spacingLeft=4;spacingRight=4;overflow=hidden;rotatable=0;points=[[0,0.5],[1,0.5]];portConstraint=eastwest;whiteSpace=wrap;html=1;" parent="1X8LrqAUc5PAFHGcHuet-4" vertex="1">
          <mxGeometry y="320" width="230" height="26" as="geometry" />
        </mxCell>
        <mxCell id="1X8LrqAUc5PAFHGcHuet-98" value="+ setFuncao() : string" style="text;strokeColor=none;fillColor=none;align=left;verticalAlign=top;spacingLeft=4;spacingRight=4;overflow=hidden;rotatable=0;points=[[0,0.5],[1,0.5]];portConstraint=eastwest;whiteSpace=wrap;html=1;" parent="1X8LrqAUc5PAFHGcHuet-4" vertex="1">
          <mxGeometry y="346" width="230" height="26" as="geometry" />
        </mxCell>
        <mxCell id="1X8LrqAUc5PAFHGcHuet-24" value="+ setFuncao() : string" style="text;strokeColor=none;fillColor=none;align=left;verticalAlign=top;spacingLeft=4;spacingRight=4;overflow=hidden;rotatable=0;points=[[0,0.5],[1,0.5]];portConstraint=eastwest;whiteSpace=wrap;html=1;" parent="1X8LrqAUc5PAFHGcHuet-4" vertex="1">
          <mxGeometry y="372" width="230" height="26" as="geometry" />
        </mxCell>
        <mxCell id="1X8LrqAUc5PAFHGcHuet-35" value="Dev" style="swimlane;fontStyle=1;align=center;verticalAlign=top;childLayout=stackLayout;horizontal=1;startSize=26;horizontalStack=0;resizeParent=1;resizeParentMax=0;resizeLast=0;collapsible=1;marginBottom=0;whiteSpace=wrap;html=1;" parent="WIyWlLk6GJQsqaUBKTNV-1" vertex="1">
          <mxGeometry x="-400" y="40" width="280" height="208" as="geometry" />
        </mxCell>
        <mxCell id="1X8LrqAUc5PAFHGcHuet-40" value="+ Dev()" style="text;strokeColor=none;fillColor=none;align=left;verticalAlign=top;spacingLeft=4;spacingRight=4;overflow=hidden;rotatable=0;points=[[0,0.5],[1,0.5]];portConstraint=eastwest;whiteSpace=wrap;html=1;" parent="1X8LrqAUc5PAFHGcHuet-35" vertex="1">
          <mxGeometry y="26" width="280" height="26" as="geometry" />
        </mxCell>
        <mxCell id="1X8LrqAUc5PAFHGcHuet-41" value="+&amp;nbsp;Dev(nome)" style="text;strokeColor=none;fillColor=none;align=left;verticalAlign=top;spacingLeft=4;spacingRight=4;overflow=hidden;rotatable=0;points=[[0,0.5],[1,0.5]];portConstraint=eastwest;whiteSpace=wrap;html=1;" parent="1X8LrqAUc5PAFHGcHuet-35" vertex="1">
          <mxGeometry y="52" width="280" height="26" as="geometry" />
        </mxCell>
        <mxCell id="1X8LrqAUc5PAFHGcHuet-42" value="+&amp;nbsp;Dev(nome, proximo)" style="text;strokeColor=none;fillColor=none;align=left;verticalAlign=top;spacingLeft=4;spacingRight=4;overflow=hidden;rotatable=0;points=[[0,0.5],[1,0.5]];portConstraint=eastwest;whiteSpace=wrap;html=1;" parent="1X8LrqAUc5PAFHGcHuet-35" vertex="1">
          <mxGeometry y="78" width="280" height="26" as="geometry" />
        </mxCell>
        <mxCell id="1X8LrqAUc5PAFHGcHuet-43" value="+ ~Dev()" style="text;strokeColor=none;fillColor=none;align=left;verticalAlign=top;spacingLeft=4;spacingRight=4;overflow=hidden;rotatable=0;points=[[0,0.5],[1,0.5]];portConstraint=eastwest;whiteSpace=wrap;html=1;" parent="1X8LrqAUc5PAFHGcHuet-35" vertex="1">
          <mxGeometry y="104" width="280" height="26" as="geometry" />
        </mxCell>
        <mxCell id="1X8LrqAUc5PAFHGcHuet-51" value="+ RealizarTarefas(status) : void" style="text;strokeColor=none;fillColor=none;align=left;verticalAlign=top;spacingLeft=4;spacingRight=4;overflow=hidden;rotatable=0;points=[[0,0.5],[1,0.5]];portConstraint=eastwest;whiteSpace=wrap;html=1;" parent="1X8LrqAUc5PAFHGcHuet-35" vertex="1">
          <mxGeometry y="130" width="280" height="26" as="geometry" />
        </mxCell>
        <mxCell id="1X8LrqAUc5PAFHGcHuet-44" value="+ RealizarTarefas(status) : void" style="text;strokeColor=none;fillColor=none;align=left;verticalAlign=top;spacingLeft=4;spacingRight=4;overflow=hidden;rotatable=0;points=[[0,0.5],[1,0.5]];portConstraint=eastwest;whiteSpace=wrap;html=1;" parent="1X8LrqAUc5PAFHGcHuet-35" vertex="1">
          <mxGeometry y="156" width="280" height="26" as="geometry" />
        </mxCell>
        <mxCell id="1X8LrqAUc5PAFHGcHuet-45" value="+&amp;nbsp;RealizarTarefaEspecifica(status, idTarefa) : void" style="text;strokeColor=none;fillColor=none;align=left;verticalAlign=top;spacingLeft=4;spacingRight=4;overflow=hidden;rotatable=0;points=[[0,0.5],[1,0.5]];portConstraint=eastwest;whiteSpace=wrap;html=1;" parent="1X8LrqAUc5PAFHGcHuet-35" vertex="1">
          <mxGeometry y="182" width="280" height="26" as="geometry" />
        </mxCell>
        <mxCell id="1X8LrqAUc5PAFHGcHuet-52" value="Backlog" style="swimlane;fontStyle=1;align=center;verticalAlign=top;childLayout=stackLayout;horizontal=1;startSize=26;horizontalStack=0;resizeParent=1;resizeParentMax=0;resizeLast=0;collapsible=1;marginBottom=0;whiteSpace=wrap;html=1;" parent="WIyWlLk6GJQsqaUBKTNV-1" vertex="1">
          <mxGeometry x="-15" y="710" width="230" height="424" as="geometry" />
        </mxCell>
        <mxCell id="1X8LrqAUc5PAFHGcHuet-53" value="- cabeca : Tarefa*" style="text;strokeColor=none;fillColor=none;align=left;verticalAlign=top;spacingLeft=4;spacingRight=4;overflow=hidden;rotatable=0;points=[[0,0.5],[1,0.5]];portConstraint=eastwest;whiteSpace=wrap;html=1;" parent="1X8LrqAUc5PAFHGcHuet-52" vertex="1">
          <mxGeometry y="26" width="230" height="26" as="geometry" />
        </mxCell>
        <mxCell id="1X8LrqAUc5PAFHGcHuet-54" value="- cauda : Tarefa*&lt;br&gt;" style="text;strokeColor=none;fillColor=none;align=left;verticalAlign=top;spacingLeft=4;spacingRight=4;overflow=hidden;rotatable=0;points=[[0,0.5],[1,0.5]];portConstraint=eastwest;whiteSpace=wrap;html=1;" parent="1X8LrqAUc5PAFHGcHuet-52" vertex="1">
          <mxGeometry y="52" width="230" height="26" as="geometry" />
        </mxCell>
        <mxCell id="1X8LrqAUc5PAFHGcHuet-55" value="- quantidade : int" style="text;strokeColor=none;fillColor=none;align=left;verticalAlign=top;spacingLeft=4;spacingRight=4;overflow=hidden;rotatable=0;points=[[0,0.5],[1,0.5]];portConstraint=eastwest;whiteSpace=wrap;html=1;" parent="1X8LrqAUc5PAFHGcHuet-52" vertex="1">
          <mxGeometry y="78" width="230" height="26" as="geometry" />
        </mxCell>
        <mxCell id="1X8LrqAUc5PAFHGcHuet-56" value="" style="line;strokeWidth=1;fillColor=none;align=left;verticalAlign=middle;spacingTop=-1;spacingLeft=3;spacingRight=3;rotatable=0;labelPosition=right;points=[];portConstraint=eastwest;strokeColor=inherit;" parent="1X8LrqAUc5PAFHGcHuet-52" vertex="1">
          <mxGeometry y="104" width="230" height="8" as="geometry" />
        </mxCell>
        <mxCell id="1X8LrqAUc5PAFHGcHuet-57" value="+ Backlog()&lt;br&gt;" style="text;strokeColor=none;fillColor=none;align=left;verticalAlign=top;spacingLeft=4;spacingRight=4;overflow=hidden;rotatable=0;points=[[0,0.5],[1,0.5]];portConstraint=eastwest;whiteSpace=wrap;html=1;" parent="1X8LrqAUc5PAFHGcHuet-52" vertex="1">
          <mxGeometry y="112" width="230" height="26" as="geometry" />
        </mxCell>
        <mxCell id="1X8LrqAUc5PAFHGcHuet-58" value="+&amp;nbsp;Backlog(cabeca, cauda, quantidade)" style="text;strokeColor=none;fillColor=none;align=left;verticalAlign=top;spacingLeft=4;spacingRight=4;overflow=hidden;rotatable=0;points=[[0,0.5],[1,0.5]];portConstraint=eastwest;whiteSpace=wrap;html=1;" parent="1X8LrqAUc5PAFHGcHuet-52" vertex="1">
          <mxGeometry y="138" width="230" height="26" as="geometry" />
        </mxCell>
        <mxCell id="1X8LrqAUc5PAFHGcHuet-60" value="+ ~Backlog()&lt;br&gt;" style="text;strokeColor=none;fillColor=none;align=left;verticalAlign=top;spacingLeft=4;spacingRight=4;overflow=hidden;rotatable=0;points=[[0,0.5],[1,0.5]];portConstraint=eastwest;whiteSpace=wrap;html=1;" parent="1X8LrqAUc5PAFHGcHuet-52" vertex="1">
          <mxGeometry y="164" width="230" height="26" as="geometry" />
        </mxCell>
        <mxCell id="1X8LrqAUc5PAFHGcHuet-61" value="+&amp;nbsp;setCabeca(h) : void" style="text;strokeColor=none;fillColor=none;align=left;verticalAlign=top;spacingLeft=4;spacingRight=4;overflow=hidden;rotatable=0;points=[[0,0.5],[1,0.5]];portConstraint=eastwest;whiteSpace=wrap;html=1;" parent="1X8LrqAUc5PAFHGcHuet-52" vertex="1">
          <mxGeometry y="190" width="230" height="26" as="geometry" />
        </mxCell>
        <mxCell id="1X8LrqAUc5PAFHGcHuet-62" value="+&amp;nbsp;getCabeca() : Tarefa*" style="text;strokeColor=none;fillColor=none;align=left;verticalAlign=top;spacingLeft=4;spacingRight=4;overflow=hidden;rotatable=0;points=[[0,0.5],[1,0.5]];portConstraint=eastwest;whiteSpace=wrap;html=1;" parent="1X8LrqAUc5PAFHGcHuet-52" vertex="1">
          <mxGeometry y="216" width="230" height="26" as="geometry" />
        </mxCell>
        <mxCell id="1X8LrqAUc5PAFHGcHuet-63" value="+&amp;nbsp;setCauda(t) : void" style="text;strokeColor=none;fillColor=none;align=left;verticalAlign=top;spacingLeft=4;spacingRight=4;overflow=hidden;rotatable=0;points=[[0,0.5],[1,0.5]];portConstraint=eastwest;whiteSpace=wrap;html=1;" parent="1X8LrqAUc5PAFHGcHuet-52" vertex="1">
          <mxGeometry y="242" width="230" height="26" as="geometry" />
        </mxCell>
        <mxCell id="1X8LrqAUc5PAFHGcHuet-67" value="+ getCauda() : Tarefa*" style="text;strokeColor=none;fillColor=none;align=left;verticalAlign=top;spacingLeft=4;spacingRight=4;overflow=hidden;rotatable=0;points=[[0,0.5],[1,0.5]];portConstraint=eastwest;whiteSpace=wrap;html=1;" parent="1X8LrqAUc5PAFHGcHuet-52" vertex="1">
          <mxGeometry y="268" width="230" height="26" as="geometry" />
        </mxCell>
        <mxCell id="1X8LrqAUc5PAFHGcHuet-64" value="+&amp;nbsp;setQuantidade(quantidade) : void" style="text;strokeColor=none;fillColor=none;align=left;verticalAlign=top;spacingLeft=4;spacingRight=4;overflow=hidden;rotatable=0;points=[[0,0.5],[1,0.5]];portConstraint=eastwest;whiteSpace=wrap;html=1;" parent="1X8LrqAUc5PAFHGcHuet-52" vertex="1">
          <mxGeometry y="294" width="230" height="26" as="geometry" />
        </mxCell>
        <mxCell id="1X8LrqAUc5PAFHGcHuet-65" value="+&amp;nbsp;getQuantidade() : int" style="text;strokeColor=none;fillColor=none;align=left;verticalAlign=top;spacingLeft=4;spacingRight=4;overflow=hidden;rotatable=0;points=[[0,0.5],[1,0.5]];portConstraint=eastwest;whiteSpace=wrap;html=1;" parent="1X8LrqAUc5PAFHGcHuet-52" vertex="1">
          <mxGeometry y="320" width="230" height="26" as="geometry" />
        </mxCell>
        <mxCell id="1X8LrqAUc5PAFHGcHuet-66" value="+&amp;nbsp;addTarefa(t) : void" style="text;strokeColor=none;fillColor=none;align=left;verticalAlign=top;spacingLeft=4;spacingRight=4;overflow=hidden;rotatable=0;points=[[0,0.5],[1,0.5]];portConstraint=eastwest;whiteSpace=wrap;html=1;" parent="1X8LrqAUc5PAFHGcHuet-52" vertex="1">
          <mxGeometry y="346" width="230" height="26" as="geometry" />
        </mxCell>
        <mxCell id="1X8LrqAUc5PAFHGcHuet-68" value="+&amp;nbsp;deletarTarefa(t) : void" style="text;strokeColor=none;fillColor=none;align=left;verticalAlign=top;spacingLeft=4;spacingRight=4;overflow=hidden;rotatable=0;points=[[0,0.5],[1,0.5]];portConstraint=eastwest;whiteSpace=wrap;html=1;" parent="1X8LrqAUc5PAFHGcHuet-52" vertex="1">
          <mxGeometry y="372" width="230" height="26" as="geometry" />
        </mxCell>
        <mxCell id="1X8LrqAUc5PAFHGcHuet-69" value="+&amp;nbsp;consultar() : Tarefa*" style="text;strokeColor=none;fillColor=none;align=left;verticalAlign=top;spacingLeft=4;spacingRight=4;overflow=hidden;rotatable=0;points=[[0,0.5],[1,0.5]];portConstraint=eastwest;whiteSpace=wrap;html=1;" parent="1X8LrqAUc5PAFHGcHuet-52" vertex="1">
          <mxGeometry y="398" width="230" height="26" as="geometry" />
        </mxCell>
        <mxCell id="1X8LrqAUc5PAFHGcHuet-70" value="ProductOwner" style="swimlane;fontStyle=1;align=center;verticalAlign=top;childLayout=stackLayout;horizontal=1;startSize=26;horizontalStack=0;resizeParent=1;resizeParentMax=0;resizeLast=0;collapsible=1;marginBottom=0;whiteSpace=wrap;html=1;" parent="WIyWlLk6GJQsqaUBKTNV-1" vertex="1">
          <mxGeometry x="-40" y="520" width="280" height="130" as="geometry" />
        </mxCell>
        <mxCell id="1X8LrqAUc5PAFHGcHuet-71" value="+ ProductOwner()" style="text;strokeColor=none;fillColor=none;align=left;verticalAlign=top;spacingLeft=4;spacingRight=4;overflow=hidden;rotatable=0;points=[[0,0.5],[1,0.5]];portConstraint=eastwest;whiteSpace=wrap;html=1;" parent="1X8LrqAUc5PAFHGcHuet-70" vertex="1">
          <mxGeometry y="26" width="280" height="26" as="geometry" />
        </mxCell>
        <mxCell id="1X8LrqAUc5PAFHGcHuet-72" value="+ ProductOwner(nome)" style="text;strokeColor=none;fillColor=none;align=left;verticalAlign=top;spacingLeft=4;spacingRight=4;overflow=hidden;rotatable=0;points=[[0,0.5],[1,0.5]];portConstraint=eastwest;whiteSpace=wrap;html=1;" parent="1X8LrqAUc5PAFHGcHuet-70" vertex="1">
          <mxGeometry y="52" width="280" height="26" as="geometry" />
        </mxCell>
        <mxCell id="1X8LrqAUc5PAFHGcHuet-74" value="+ ~ProductOwner()" style="text;strokeColor=none;fillColor=none;align=left;verticalAlign=top;spacingLeft=4;spacingRight=4;overflow=hidden;rotatable=0;points=[[0,0.5],[1,0.5]];portConstraint=eastwest;whiteSpace=wrap;html=1;" parent="1X8LrqAUc5PAFHGcHuet-70" vertex="1">
          <mxGeometry y="78" width="280" height="26" as="geometry" />
        </mxCell>
        <mxCell id="1X8LrqAUc5PAFHGcHuet-75" value="+ cadastrarTarefa(t) : void" style="text;strokeColor=none;fillColor=none;align=left;verticalAlign=top;spacingLeft=4;spacingRight=4;overflow=hidden;rotatable=0;points=[[0,0.5],[1,0.5]];portConstraint=eastwest;whiteSpace=wrap;html=1;" parent="1X8LrqAUc5PAFHGcHuet-70" vertex="1">
          <mxGeometry y="104" width="280" height="26" as="geometry" />
        </mxCell>
        <mxCell id="1X8LrqAUc5PAFHGcHuet-78" value="Extends" style="endArrow=block;endSize=16;endFill=0;html=1;rounded=0;" parent="WIyWlLk6GJQsqaUBKTNV-1" source="1X8LrqAUc5PAFHGcHuet-4" target="1X8LrqAUc5PAFHGcHuet-70" edge="1">
          <mxGeometry width="160" relative="1" as="geometry">
            <mxPoint x="173" y="408" as="sourcePoint" />
            <mxPoint x="173" y="510" as="targetPoint" />
            <Array as="points">
              <mxPoint x="280" y="490" />
            </Array>
          </mxGeometry>
        </mxCell>
        <mxCell id="1X8LrqAUc5PAFHGcHuet-79" value="Tester" style="swimlane;fontStyle=1;align=center;verticalAlign=top;childLayout=stackLayout;horizontal=1;startSize=26;horizontalStack=0;resizeParent=1;resizeParentMax=0;resizeLast=0;collapsible=1;marginBottom=0;whiteSpace=wrap;html=1;" parent="WIyWlLk6GJQsqaUBKTNV-1" vertex="1">
          <mxGeometry x="-40" y="80" width="280" height="234" as="geometry" />
        </mxCell>
        <mxCell id="1X8LrqAUc5PAFHGcHuet-80" value="+ Tester()" style="text;strokeColor=none;fillColor=none;align=left;verticalAlign=top;spacingLeft=4;spacingRight=4;overflow=hidden;rotatable=0;points=[[0,0.5],[1,0.5]];portConstraint=eastwest;whiteSpace=wrap;html=1;" parent="1X8LrqAUc5PAFHGcHuet-79" vertex="1">
          <mxGeometry y="26" width="280" height="26" as="geometry" />
        </mxCell>
        <mxCell id="1X8LrqAUc5PAFHGcHuet-81" value="+ Tester(nome)" style="text;strokeColor=none;fillColor=none;align=left;verticalAlign=top;spacingLeft=4;spacingRight=4;overflow=hidden;rotatable=0;points=[[0,0.5],[1,0.5]];portConstraint=eastwest;whiteSpace=wrap;html=1;" parent="1X8LrqAUc5PAFHGcHuet-79" vertex="1">
          <mxGeometry y="52" width="280" height="26" as="geometry" />
        </mxCell>
        <mxCell id="1X8LrqAUc5PAFHGcHuet-82" value="+ Tester(nome, proximo)" style="text;strokeColor=none;fillColor=none;align=left;verticalAlign=top;spacingLeft=4;spacingRight=4;overflow=hidden;rotatable=0;points=[[0,0.5],[1,0.5]];portConstraint=eastwest;whiteSpace=wrap;html=1;" parent="1X8LrqAUc5PAFHGcHuet-79" vertex="1">
          <mxGeometry y="78" width="280" height="26" as="geometry" />
        </mxCell>
        <mxCell id="1X8LrqAUc5PAFHGcHuet-83" value="+ ~Tester()" style="text;strokeColor=none;fillColor=none;align=left;verticalAlign=top;spacingLeft=4;spacingRight=4;overflow=hidden;rotatable=0;points=[[0,0.5],[1,0.5]];portConstraint=eastwest;whiteSpace=wrap;html=1;" parent="1X8LrqAUc5PAFHGcHuet-79" vertex="1">
          <mxGeometry y="104" width="280" height="26" as="geometry" />
        </mxCell>
        <mxCell id="1X8LrqAUc5PAFHGcHuet-84" value="+&amp;nbsp;validarTarefasDe(p) : void" style="text;strokeColor=none;fillColor=none;align=left;verticalAlign=top;spacingLeft=4;spacingRight=4;overflow=hidden;rotatable=0;points=[[0,0.5],[1,0.5]];portConstraint=eastwest;whiteSpace=wrap;html=1;" parent="1X8LrqAUc5PAFHGcHuet-79" vertex="1">
          <mxGeometry y="130" width="280" height="26" as="geometry" />
        </mxCell>
        <mxCell id="1X8LrqAUc5PAFHGcHuet-85" value="+&amp;nbsp;declinarTarefasDe(p) : void" style="text;strokeColor=none;fillColor=none;align=left;verticalAlign=top;spacingLeft=4;spacingRight=4;overflow=hidden;rotatable=0;points=[[0,0.5],[1,0.5]];portConstraint=eastwest;whiteSpace=wrap;html=1;" parent="1X8LrqAUc5PAFHGcHuet-79" vertex="1">
          <mxGeometry y="156" width="280" height="26" as="geometry" />
        </mxCell>
        <mxCell id="1X8LrqAUc5PAFHGcHuet-89" value="+ validarTarefa(t) : void" style="text;strokeColor=none;fillColor=none;align=left;verticalAlign=top;spacingLeft=4;spacingRight=4;overflow=hidden;rotatable=0;points=[[0,0.5],[1,0.5]];portConstraint=eastwest;whiteSpace=wrap;html=1;" parent="1X8LrqAUc5PAFHGcHuet-79" vertex="1">
          <mxGeometry y="182" width="280" height="26" as="geometry" />
        </mxCell>
        <mxCell id="1X8LrqAUc5PAFHGcHuet-90" value="+ declinarTarefa(t) : void" style="text;strokeColor=none;fillColor=none;align=left;verticalAlign=top;spacingLeft=4;spacingRight=4;overflow=hidden;rotatable=0;points=[[0,0.5],[1,0.5]];portConstraint=eastwest;whiteSpace=wrap;html=1;" parent="1X8LrqAUc5PAFHGcHuet-79" vertex="1">
          <mxGeometry y="208" width="280" height="26" as="geometry" />
        </mxCell>
        <mxCell id="1X8LrqAUc5PAFHGcHuet-88" value="Extends" style="endArrow=block;endSize=16;endFill=0;html=1;rounded=0;" parent="WIyWlLk6GJQsqaUBKTNV-1" source="1X8LrqAUc5PAFHGcHuet-4" target="1X8LrqAUc5PAFHGcHuet-79" edge="1">
          <mxGeometry width="160" relative="1" as="geometry">
            <mxPoint x="62.99999999999999" y="75.42999999999999" as="sourcePoint" />
            <mxPoint x="-79.76000000000022" y="74.47799999999988" as="targetPoint" />
          </mxGeometry>
        </mxCell>
        <mxCell id="1X8LrqAUc5PAFHGcHuet-91" value="ScrumMaster" style="swimlane;fontStyle=1;align=center;verticalAlign=top;childLayout=stackLayout;horizontal=1;startSize=26;horizontalStack=0;resizeParent=1;resizeParentMax=0;resizeLast=0;collapsible=1;marginBottom=0;whiteSpace=wrap;html=1;" parent="WIyWlLk6GJQsqaUBKTNV-1" vertex="1">
          <mxGeometry x="-40" y="340" width="280" height="156" as="geometry" />
        </mxCell>
        <mxCell id="1X8LrqAUc5PAFHGcHuet-92" value="+ ScrumMaster()" style="text;strokeColor=none;fillColor=none;align=left;verticalAlign=top;spacingLeft=4;spacingRight=4;overflow=hidden;rotatable=0;points=[[0,0.5],[1,0.5]];portConstraint=eastwest;whiteSpace=wrap;html=1;" parent="1X8LrqAUc5PAFHGcHuet-91" vertex="1">
          <mxGeometry y="26" width="280" height="26" as="geometry" />
        </mxCell>
        <mxCell id="1X8LrqAUc5PAFHGcHuet-93" value="+ ScrumMaster(nome)" style="text;strokeColor=none;fillColor=none;align=left;verticalAlign=top;spacingLeft=4;spacingRight=4;overflow=hidden;rotatable=0;points=[[0,0.5],[1,0.5]];portConstraint=eastwest;whiteSpace=wrap;html=1;" parent="1X8LrqAUc5PAFHGcHuet-91" vertex="1">
          <mxGeometry y="52" width="280" height="26" as="geometry" />
        </mxCell>
        <mxCell id="1X8LrqAUc5PAFHGcHuet-94" value="+ ~ScrumMaster()" style="text;strokeColor=none;fillColor=none;align=left;verticalAlign=top;spacingLeft=4;spacingRight=4;overflow=hidden;rotatable=0;points=[[0,0.5],[1,0.5]];portConstraint=eastwest;whiteSpace=wrap;html=1;" parent="1X8LrqAUc5PAFHGcHuet-91" vertex="1">
          <mxGeometry y="78" width="280" height="26" as="geometry" />
        </mxCell>
        <mxCell id="1X8LrqAUc5PAFHGcHuet-95" value="+&amp;nbsp;atribuirTarefa(t) : void" style="text;strokeColor=none;fillColor=none;align=left;verticalAlign=top;spacingLeft=4;spacingRight=4;overflow=hidden;rotatable=0;points=[[0,0.5],[1,0.5]];portConstraint=eastwest;whiteSpace=wrap;html=1;" parent="1X8LrqAUc5PAFHGcHuet-91" vertex="1">
          <mxGeometry y="104" width="280" height="26" as="geometry" />
        </mxCell>
        <mxCell id="1X8LrqAUc5PAFHGcHuet-97" value="+&amp;nbsp;atribuirTarefaAPessoa(t) : void" style="text;strokeColor=none;fillColor=none;align=left;verticalAlign=top;spacingLeft=4;spacingRight=4;overflow=hidden;rotatable=0;points=[[0,0.5],[1,0.5]];portConstraint=eastwest;whiteSpace=wrap;html=1;" parent="1X8LrqAUc5PAFHGcHuet-91" vertex="1">
          <mxGeometry y="130" width="280" height="26" as="geometry" />
        </mxCell>
        <mxCell id="1X8LrqAUc5PAFHGcHuet-96" value="Extends" style="endArrow=block;endSize=16;endFill=0;html=1;rounded=0;" parent="WIyWlLk6GJQsqaUBKTNV-1" source="1X8LrqAUc5PAFHGcHuet-4" target="1X8LrqAUc5PAFHGcHuet-91" edge="1">
          <mxGeometry width="160" relative="1" as="geometry">
            <mxPoint x="53" y="260" as="sourcePoint" />
            <mxPoint x="-17" y="310" as="targetPoint" />
          </mxGeometry>
        </mxCell>
        <mxCell id="1X8LrqAUc5PAFHGcHuet-100" value="Tarefa" style="swimlane;fontStyle=1;align=center;verticalAlign=top;childLayout=stackLayout;horizontal=1;startSize=26;horizontalStack=0;resizeParent=1;resizeParentMax=0;resizeLast=0;collapsible=1;marginBottom=0;whiteSpace=wrap;html=1;" parent="WIyWlLk6GJQsqaUBKTNV-1" vertex="1">
          <mxGeometry x="-800" y="40" width="347" height="632" as="geometry" />
        </mxCell>
        <mxCell id="1X8LrqAUc5PAFHGcHuet-101" value="- proximo : Tarefa*" style="text;strokeColor=none;fillColor=none;align=left;verticalAlign=top;spacingLeft=4;spacingRight=4;overflow=hidden;rotatable=0;points=[[0,0.5],[1,0.5]];portConstraint=eastwest;whiteSpace=wrap;html=1;" parent="1X8LrqAUc5PAFHGcHuet-100" vertex="1">
          <mxGeometry y="26" width="347" height="26" as="geometry" />
        </mxCell>
        <mxCell id="1X8LrqAUc5PAFHGcHuet-102" value="- id : int" style="text;strokeColor=none;fillColor=none;align=left;verticalAlign=top;spacingLeft=4;spacingRight=4;overflow=hidden;rotatable=0;points=[[0,0.5],[1,0.5]];portConstraint=eastwest;whiteSpace=wrap;html=1;" parent="1X8LrqAUc5PAFHGcHuet-100" vertex="1">
          <mxGeometry y="52" width="347" height="26" as="geometry" />
        </mxCell>
        <mxCell id="1X8LrqAUc5PAFHGcHuet-103" value="- PontosDeEsforco : int" style="text;strokeColor=none;fillColor=none;align=left;verticalAlign=top;spacingLeft=4;spacingRight=4;overflow=hidden;rotatable=0;points=[[0,0.5],[1,0.5]];portConstraint=eastwest;whiteSpace=wrap;html=1;" parent="1X8LrqAUc5PAFHGcHuet-100" vertex="1">
          <mxGeometry y="78" width="347" height="26" as="geometry" />
        </mxCell>
        <mxCell id="1X8LrqAUc5PAFHGcHuet-127" value="- status : string" style="text;strokeColor=none;fillColor=none;align=left;verticalAlign=top;spacingLeft=4;spacingRight=4;overflow=hidden;rotatable=0;points=[[0,0.5],[1,0.5]];portConstraint=eastwest;whiteSpace=wrap;html=1;" parent="1X8LrqAUc5PAFHGcHuet-100" vertex="1">
          <mxGeometry y="104" width="347" height="26" as="geometry" />
        </mxCell>
        <mxCell id="1X8LrqAUc5PAFHGcHuet-128" value="- instrucoes : string" style="text;strokeColor=none;fillColor=none;align=left;verticalAlign=top;spacingLeft=4;spacingRight=4;overflow=hidden;rotatable=0;points=[[0,0.5],[1,0.5]];portConstraint=eastwest;whiteSpace=wrap;html=1;" parent="1X8LrqAUc5PAFHGcHuet-100" vertex="1">
          <mxGeometry y="130" width="347" height="26" as="geometry" />
        </mxCell>
        <mxCell id="1X8LrqAUc5PAFHGcHuet-129" value="- responsavel : Dev*" style="text;strokeColor=none;fillColor=none;align=left;verticalAlign=top;spacingLeft=4;spacingRight=4;overflow=hidden;rotatable=0;points=[[0,0.5],[1,0.5]];portConstraint=eastwest;whiteSpace=wrap;html=1;" parent="1X8LrqAUc5PAFHGcHuet-100" vertex="1">
          <mxGeometry y="156" width="347" height="26" as="geometry" />
        </mxCell>
        <mxCell id="1X8LrqAUc5PAFHGcHuet-104" value="" style="line;strokeWidth=1;fillColor=none;align=left;verticalAlign=middle;spacingTop=-1;spacingLeft=3;spacingRight=3;rotatable=0;labelPosition=right;points=[];portConstraint=eastwest;strokeColor=inherit;" parent="1X8LrqAUc5PAFHGcHuet-100" vertex="1">
          <mxGeometry y="182" width="347" height="8" as="geometry" />
        </mxCell>
        <mxCell id="1X8LrqAUc5PAFHGcHuet-105" value="+ Tarefa()" style="text;strokeColor=none;fillColor=none;align=left;verticalAlign=top;spacingLeft=4;spacingRight=4;overflow=hidden;rotatable=0;points=[[0,0.5],[1,0.5]];portConstraint=eastwest;whiteSpace=wrap;html=1;" parent="1X8LrqAUc5PAFHGcHuet-100" vertex="1">
          <mxGeometry y="190" width="347" height="26" as="geometry" />
        </mxCell>
        <mxCell id="1X8LrqAUc5PAFHGcHuet-106" value="+&amp;nbsp;Tarefa(id, PontosDeEsforco, instrucoes)" style="text;strokeColor=none;fillColor=none;align=left;verticalAlign=top;spacingLeft=4;spacingRight=4;overflow=hidden;rotatable=0;points=[[0,0.5],[1,0.5]];portConstraint=eastwest;whiteSpace=wrap;html=1;" parent="1X8LrqAUc5PAFHGcHuet-100" vertex="1">
          <mxGeometry y="216" width="347" height="26" as="geometry" />
        </mxCell>
        <mxCell id="1X8LrqAUc5PAFHGcHuet-107" value="+&amp;nbsp;Tarefa(id, PontosDeEsforco, instrucoes, responsavel)" style="text;strokeColor=none;fillColor=none;align=left;verticalAlign=top;spacingLeft=4;spacingRight=4;overflow=hidden;rotatable=0;points=[[0,0.5],[1,0.5]];portConstraint=eastwest;whiteSpace=wrap;html=1;" parent="1X8LrqAUc5PAFHGcHuet-100" vertex="1">
          <mxGeometry y="242" width="347" height="26" as="geometry" />
        </mxCell>
        <mxCell id="1X8LrqAUc5PAFHGcHuet-108" value="+ Tarefa(id, PontosDeEsforco, instrucoes, responsavel, status)" style="text;strokeColor=none;fillColor=none;align=left;verticalAlign=top;spacingLeft=4;spacingRight=4;overflow=hidden;rotatable=0;points=[[0,0.5],[1,0.5]];portConstraint=eastwest;whiteSpace=wrap;html=1;" parent="1X8LrqAUc5PAFHGcHuet-100" vertex="1">
          <mxGeometry y="268" width="347" height="26" as="geometry" />
        </mxCell>
        <mxCell id="1X8LrqAUc5PAFHGcHuet-109" value="+ ~Tarefa()" style="text;strokeColor=none;fillColor=none;align=left;verticalAlign=top;spacingLeft=4;spacingRight=4;overflow=hidden;rotatable=0;points=[[0,0.5],[1,0.5]];portConstraint=eastwest;whiteSpace=wrap;html=1;" parent="1X8LrqAUc5PAFHGcHuet-100" vertex="1">
          <mxGeometry y="294" width="347" height="26" as="geometry" />
        </mxCell>
        <mxCell id="1X8LrqAUc5PAFHGcHuet-110" value="+ setProximo(proximo) : void" style="text;strokeColor=none;fillColor=none;align=left;verticalAlign=top;spacingLeft=4;spacingRight=4;overflow=hidden;rotatable=0;points=[[0,0.5],[1,0.5]];portConstraint=eastwest;whiteSpace=wrap;html=1;" parent="1X8LrqAUc5PAFHGcHuet-100" vertex="1">
          <mxGeometry y="320" width="347" height="26" as="geometry" />
        </mxCell>
        <mxCell id="1X8LrqAUc5PAFHGcHuet-111" value="+ getProximo() : Tarefa*" style="text;strokeColor=none;fillColor=none;align=left;verticalAlign=top;spacingLeft=4;spacingRight=4;overflow=hidden;rotatable=0;points=[[0,0.5],[1,0.5]];portConstraint=eastwest;whiteSpace=wrap;html=1;" parent="1X8LrqAUc5PAFHGcHuet-100" vertex="1">
          <mxGeometry y="346" width="347" height="26" as="geometry" />
        </mxCell>
        <mxCell id="1X8LrqAUc5PAFHGcHuet-112" value="+ setId(id) : void" style="text;strokeColor=none;fillColor=none;align=left;verticalAlign=top;spacingLeft=4;spacingRight=4;overflow=hidden;rotatable=0;points=[[0,0.5],[1,0.5]];portConstraint=eastwest;whiteSpace=wrap;html=1;" parent="1X8LrqAUc5PAFHGcHuet-100" vertex="1">
          <mxGeometry y="372" width="347" height="26" as="geometry" />
        </mxCell>
        <mxCell id="1X8LrqAUc5PAFHGcHuet-113" value="+ getId() : int" style="text;strokeColor=none;fillColor=none;align=left;verticalAlign=top;spacingLeft=4;spacingRight=4;overflow=hidden;rotatable=0;points=[[0,0.5],[1,0.5]];portConstraint=eastwest;whiteSpace=wrap;html=1;" parent="1X8LrqAUc5PAFHGcHuet-100" vertex="1">
          <mxGeometry y="398" width="347" height="26" as="geometry" />
        </mxCell>
        <mxCell id="1X8LrqAUc5PAFHGcHuet-114" value="+&amp;nbsp;setPontosDeEsforco(PontosDeEsforco) : void&amp;nbsp;" style="text;strokeColor=none;fillColor=none;align=left;verticalAlign=top;spacingLeft=4;spacingRight=4;overflow=hidden;rotatable=0;points=[[0,0.5],[1,0.5]];portConstraint=eastwest;whiteSpace=wrap;html=1;" parent="1X8LrqAUc5PAFHGcHuet-100" vertex="1">
          <mxGeometry y="424" width="347" height="26" as="geometry" />
        </mxCell>
        <mxCell id="1X8LrqAUc5PAFHGcHuet-115" value="+&amp;nbsp;getPontosDeEsforco() : int" style="text;strokeColor=none;fillColor=none;align=left;verticalAlign=top;spacingLeft=4;spacingRight=4;overflow=hidden;rotatable=0;points=[[0,0.5],[1,0.5]];portConstraint=eastwest;whiteSpace=wrap;html=1;" parent="1X8LrqAUc5PAFHGcHuet-100" vertex="1">
          <mxGeometry y="450" width="347" height="26" as="geometry" />
        </mxCell>
        <mxCell id="1X8LrqAUc5PAFHGcHuet-116" value="+&amp;nbsp;setStatus(status) : void" style="text;strokeColor=none;fillColor=none;align=left;verticalAlign=top;spacingLeft=4;spacingRight=4;overflow=hidden;rotatable=0;points=[[0,0.5],[1,0.5]];portConstraint=eastwest;whiteSpace=wrap;html=1;" parent="1X8LrqAUc5PAFHGcHuet-100" vertex="1">
          <mxGeometry y="476" width="347" height="26" as="geometry" />
        </mxCell>
        <mxCell id="1X8LrqAUc5PAFHGcHuet-130" value="+ getStatus() : string" style="text;strokeColor=none;fillColor=none;align=left;verticalAlign=top;spacingLeft=4;spacingRight=4;overflow=hidden;rotatable=0;points=[[0,0.5],[1,0.5]];portConstraint=eastwest;whiteSpace=wrap;html=1;" parent="1X8LrqAUc5PAFHGcHuet-100" vertex="1">
          <mxGeometry y="502" width="347" height="26" as="geometry" />
        </mxCell>
        <mxCell id="1X8LrqAUc5PAFHGcHuet-131" value="+&amp;nbsp;setInstrucoes(instrucoes) : void" style="text;strokeColor=none;fillColor=none;align=left;verticalAlign=top;spacingLeft=4;spacingRight=4;overflow=hidden;rotatable=0;points=[[0,0.5],[1,0.5]];portConstraint=eastwest;whiteSpace=wrap;html=1;" parent="1X8LrqAUc5PAFHGcHuet-100" vertex="1">
          <mxGeometry y="528" width="347" height="26" as="geometry" />
        </mxCell>
        <mxCell id="1X8LrqAUc5PAFHGcHuet-132" value="+ getInstrucoes() : string" style="text;strokeColor=none;fillColor=none;align=left;verticalAlign=top;spacingLeft=4;spacingRight=4;overflow=hidden;rotatable=0;points=[[0,0.5],[1,0.5]];portConstraint=eastwest;whiteSpace=wrap;html=1;" parent="1X8LrqAUc5PAFHGcHuet-100" vertex="1">
          <mxGeometry y="554" width="347" height="26" as="geometry" />
        </mxCell>
        <mxCell id="1X8LrqAUc5PAFHGcHuet-133" value="+ setResponsavel(responsavel) : void" style="text;strokeColor=none;fillColor=none;align=left;verticalAlign=top;spacingLeft=4;spacingRight=4;overflow=hidden;rotatable=0;points=[[0,0.5],[1,0.5]];portConstraint=eastwest;whiteSpace=wrap;html=1;" parent="1X8LrqAUc5PAFHGcHuet-100" vertex="1">
          <mxGeometry y="580" width="347" height="26" as="geometry" />
        </mxCell>
        <mxCell id="1X8LrqAUc5PAFHGcHuet-134" value="+ getResponsavel(responsavel) : Dev*" style="text;strokeColor=none;fillColor=none;align=left;verticalAlign=top;spacingLeft=4;spacingRight=4;overflow=hidden;rotatable=0;points=[[0,0.5],[1,0.5]];portConstraint=eastwest;whiteSpace=wrap;html=1;" parent="1X8LrqAUc5PAFHGcHuet-100" vertex="1">
          <mxGeometry y="606" width="347" height="26" as="geometry" />
        </mxCell>
        <mxCell id="1X8LrqAUc5PAFHGcHuet-118" value="Relation" style="endArrow=open;html=1;endSize=12;startArrow=diamondThin;startSize=14;startFill=0;edgeStyle=orthogonalEdgeStyle;rounded=0;" parent="WIyWlLk6GJQsqaUBKTNV-1" source="1X8LrqAUc5PAFHGcHuet-35" target="1X8LrqAUc5PAFHGcHuet-100" edge="1">
          <mxGeometry relative="1" as="geometry">
            <mxPoint x="38" y="540" as="sourcePoint" />
            <mxPoint x="-122" y="540" as="targetPoint" />
            <Array as="points">
              <mxPoint x="-427" y="100" />
              <mxPoint x="-427" y="240" />
            </Array>
          </mxGeometry>
        </mxCell>
        <mxCell id="1X8LrqAUc5PAFHGcHuet-119" value="1" style="edgeLabel;resizable=0;html=1;align=left;verticalAlign=top;" parent="1X8LrqAUc5PAFHGcHuet-118" connectable="0" vertex="1">
          <mxGeometry x="-1" relative="1" as="geometry" />
        </mxCell>
        <mxCell id="1X8LrqAUc5PAFHGcHuet-120" value="*" style="edgeLabel;resizable=0;html=1;align=right;verticalAlign=top;" parent="1X8LrqAUc5PAFHGcHuet-118" connectable="0" vertex="1">
          <mxGeometry x="1" relative="1" as="geometry" />
        </mxCell>
        <mxCell id="1X8LrqAUc5PAFHGcHuet-136" value="Extends" style="endArrow=block;endSize=16;endFill=0;html=1;rounded=0;" parent="WIyWlLk6GJQsqaUBKTNV-1" source="1X8LrqAUc5PAFHGcHuet-4" target="1X8LrqAUc5PAFHGcHuet-35" edge="1">
          <mxGeometry width="160" relative="1" as="geometry">
            <mxPoint x="279" y="39" as="sourcePoint" />
            <mxPoint x="-80" y="50" as="targetPoint" />
            <Array as="points">
              <mxPoint x="270" y="50" />
              <mxPoint x="-70" y="50" />
            </Array>
          </mxGeometry>
        </mxCell>
        <mxCell id="1X8LrqAUc5PAFHGcHuet-137" value="Sprint" style="swimlane;fontStyle=1;align=center;verticalAlign=top;childLayout=stackLayout;horizontal=1;startSize=26;horizontalStack=0;resizeParent=1;resizeParentMax=0;resizeLast=0;collapsible=1;marginBottom=0;whiteSpace=wrap;html=1;" parent="WIyWlLk6GJQsqaUBKTNV-1" vertex="1">
          <mxGeometry x="-360" y="710" width="230" height="476" as="geometry" />
        </mxCell>
        <mxCell id="1X8LrqAUc5PAFHGcHuet-138" value="- cabeca : Tarefa*" style="text;strokeColor=none;fillColor=none;align=left;verticalAlign=top;spacingLeft=4;spacingRight=4;overflow=hidden;rotatable=0;points=[[0,0.5],[1,0.5]];portConstraint=eastwest;whiteSpace=wrap;html=1;" parent="1X8LrqAUc5PAFHGcHuet-137" vertex="1">
          <mxGeometry y="26" width="230" height="26" as="geometry" />
        </mxCell>
        <mxCell id="1X8LrqAUc5PAFHGcHuet-139" value="- cauda : Tarefa*&lt;br&gt;" style="text;strokeColor=none;fillColor=none;align=left;verticalAlign=top;spacingLeft=4;spacingRight=4;overflow=hidden;rotatable=0;points=[[0,0.5],[1,0.5]];portConstraint=eastwest;whiteSpace=wrap;html=1;" parent="1X8LrqAUc5PAFHGcHuet-137" vertex="1">
          <mxGeometry y="52" width="230" height="26" as="geometry" />
        </mxCell>
        <mxCell id="1X8LrqAUc5PAFHGcHuet-154" value="- tempoPassado : int" style="text;strokeColor=none;fillColor=none;align=left;verticalAlign=top;spacingLeft=4;spacingRight=4;overflow=hidden;rotatable=0;points=[[0,0.5],[1,0.5]];portConstraint=eastwest;whiteSpace=wrap;html=1;" parent="1X8LrqAUc5PAFHGcHuet-137" vertex="1">
          <mxGeometry y="78" width="230" height="26" as="geometry" />
        </mxCell>
        <mxCell id="1X8LrqAUc5PAFHGcHuet-140" value="- quantidade : int" style="text;strokeColor=none;fillColor=none;align=left;verticalAlign=top;spacingLeft=4;spacingRight=4;overflow=hidden;rotatable=0;points=[[0,0.5],[1,0.5]];portConstraint=eastwest;whiteSpace=wrap;html=1;" parent="1X8LrqAUc5PAFHGcHuet-137" vertex="1">
          <mxGeometry y="104" width="230" height="26" as="geometry" />
        </mxCell>
        <mxCell id="1X8LrqAUc5PAFHGcHuet-141" value="" style="line;strokeWidth=1;fillColor=none;align=left;verticalAlign=middle;spacingTop=-1;spacingLeft=3;spacingRight=3;rotatable=0;labelPosition=right;points=[];portConstraint=eastwest;strokeColor=inherit;" parent="1X8LrqAUc5PAFHGcHuet-137" vertex="1">
          <mxGeometry y="130" width="230" height="8" as="geometry" />
        </mxCell>
        <mxCell id="1X8LrqAUc5PAFHGcHuet-142" value="+ Sprint()" style="text;strokeColor=none;fillColor=none;align=left;verticalAlign=top;spacingLeft=4;spacingRight=4;overflow=hidden;rotatable=0;points=[[0,0.5],[1,0.5]];portConstraint=eastwest;whiteSpace=wrap;html=1;" parent="1X8LrqAUc5PAFHGcHuet-137" vertex="1">
          <mxGeometry y="138" width="230" height="26" as="geometry" />
        </mxCell>
        <mxCell id="1X8LrqAUc5PAFHGcHuet-143" value="+ Sprint(cabeca, cauda)" style="text;strokeColor=none;fillColor=none;align=left;verticalAlign=top;spacingLeft=4;spacingRight=4;overflow=hidden;rotatable=0;points=[[0,0.5],[1,0.5]];portConstraint=eastwest;whiteSpace=wrap;html=1;" parent="1X8LrqAUc5PAFHGcHuet-137" vertex="1">
          <mxGeometry y="164" width="230" height="26" as="geometry" />
        </mxCell>
        <mxCell id="1X8LrqAUc5PAFHGcHuet-144" value="+ ~Sprint()" style="text;strokeColor=none;fillColor=none;align=left;verticalAlign=top;spacingLeft=4;spacingRight=4;overflow=hidden;rotatable=0;points=[[0,0.5],[1,0.5]];portConstraint=eastwest;whiteSpace=wrap;html=1;" parent="1X8LrqAUc5PAFHGcHuet-137" vertex="1">
          <mxGeometry y="190" width="230" height="26" as="geometry" />
        </mxCell>
        <mxCell id="1X8LrqAUc5PAFHGcHuet-145" value="+&amp;nbsp;setCabeca(h) : void" style="text;strokeColor=none;fillColor=none;align=left;verticalAlign=top;spacingLeft=4;spacingRight=4;overflow=hidden;rotatable=0;points=[[0,0.5],[1,0.5]];portConstraint=eastwest;whiteSpace=wrap;html=1;" parent="1X8LrqAUc5PAFHGcHuet-137" vertex="1">
          <mxGeometry y="216" width="230" height="26" as="geometry" />
        </mxCell>
        <mxCell id="1X8LrqAUc5PAFHGcHuet-146" value="+&amp;nbsp;getCabeca() : Tarefa*" style="text;strokeColor=none;fillColor=none;align=left;verticalAlign=top;spacingLeft=4;spacingRight=4;overflow=hidden;rotatable=0;points=[[0,0.5],[1,0.5]];portConstraint=eastwest;whiteSpace=wrap;html=1;" parent="1X8LrqAUc5PAFHGcHuet-137" vertex="1">
          <mxGeometry y="242" width="230" height="26" as="geometry" />
        </mxCell>
        <mxCell id="1X8LrqAUc5PAFHGcHuet-147" value="+&amp;nbsp;setCauda(t) : void" style="text;strokeColor=none;fillColor=none;align=left;verticalAlign=top;spacingLeft=4;spacingRight=4;overflow=hidden;rotatable=0;points=[[0,0.5],[1,0.5]];portConstraint=eastwest;whiteSpace=wrap;html=1;" parent="1X8LrqAUc5PAFHGcHuet-137" vertex="1">
          <mxGeometry y="268" width="230" height="26" as="geometry" />
        </mxCell>
        <mxCell id="1X8LrqAUc5PAFHGcHuet-148" value="+ getCauda() : Tarefa*" style="text;strokeColor=none;fillColor=none;align=left;verticalAlign=top;spacingLeft=4;spacingRight=4;overflow=hidden;rotatable=0;points=[[0,0.5],[1,0.5]];portConstraint=eastwest;whiteSpace=wrap;html=1;" parent="1X8LrqAUc5PAFHGcHuet-137" vertex="1">
          <mxGeometry y="294" width="230" height="26" as="geometry" />
        </mxCell>
        <mxCell id="1X8LrqAUc5PAFHGcHuet-151" value="+ setTempoPassado(tempo) : void" style="text;strokeColor=none;fillColor=none;align=left;verticalAlign=top;spacingLeft=4;spacingRight=4;overflow=hidden;rotatable=0;points=[[0,0.5],[1,0.5]];portConstraint=eastwest;whiteSpace=wrap;html=1;" parent="1X8LrqAUc5PAFHGcHuet-137" vertex="1">
          <mxGeometry y="320" width="230" height="26" as="geometry" />
        </mxCell>
        <mxCell id="1X8LrqAUc5PAFHGcHuet-152" value="+ getTempoPassado() : int" style="text;strokeColor=none;fillColor=none;align=left;verticalAlign=top;spacingLeft=4;spacingRight=4;overflow=hidden;rotatable=0;points=[[0,0.5],[1,0.5]];portConstraint=eastwest;whiteSpace=wrap;html=1;" parent="1X8LrqAUc5PAFHGcHuet-137" vertex="1">
          <mxGeometry y="346" width="230" height="26" as="geometry" />
        </mxCell>
        <mxCell id="1X8LrqAUc5PAFHGcHuet-149" value="+&amp;nbsp;setQuantidade(quantidade) : void" style="text;strokeColor=none;fillColor=none;align=left;verticalAlign=top;spacingLeft=4;spacingRight=4;overflow=hidden;rotatable=0;points=[[0,0.5],[1,0.5]];portConstraint=eastwest;whiteSpace=wrap;html=1;" parent="1X8LrqAUc5PAFHGcHuet-137" vertex="1">
          <mxGeometry y="372" width="230" height="26" as="geometry" />
        </mxCell>
        <mxCell id="1X8LrqAUc5PAFHGcHuet-150" value="+&amp;nbsp;getQuantidade() : int" style="text;strokeColor=none;fillColor=none;align=left;verticalAlign=top;spacingLeft=4;spacingRight=4;overflow=hidden;rotatable=0;points=[[0,0.5],[1,0.5]];portConstraint=eastwest;whiteSpace=wrap;html=1;" parent="1X8LrqAUc5PAFHGcHuet-137" vertex="1">
          <mxGeometry y="398" width="230" height="26" as="geometry" />
        </mxCell>
        <mxCell id="1X8LrqAUc5PAFHGcHuet-153" value="+&amp;nbsp;gerarRelatorio() : int" style="text;strokeColor=none;fillColor=none;align=left;verticalAlign=top;spacingLeft=4;spacingRight=4;overflow=hidden;rotatable=0;points=[[0,0.5],[1,0.5]];portConstraint=eastwest;whiteSpace=wrap;html=1;" parent="1X8LrqAUc5PAFHGcHuet-137" vertex="1">
          <mxGeometry y="424" width="230" height="26" as="geometry" />
        </mxCell>
        <mxCell id="1X8LrqAUc5PAFHGcHuet-155" value="+&amp;nbsp;gerarRelatorioDe(Dev* p) : int" style="text;strokeColor=none;fillColor=none;align=left;verticalAlign=top;spacingLeft=4;spacingRight=4;overflow=hidden;rotatable=0;points=[[0,0.5],[1,0.5]];portConstraint=eastwest;whiteSpace=wrap;html=1;" parent="1X8LrqAUc5PAFHGcHuet-137" vertex="1">
          <mxGeometry y="450" width="230" height="26" as="geometry" />
        </mxCell>
        <mxCell id="1X8LrqAUc5PAFHGcHuet-156" value="Use" style="endArrow=open;endSize=12;dashed=1;html=1;rounded=0;" parent="WIyWlLk6GJQsqaUBKTNV-1" source="1X8LrqAUc5PAFHGcHuet-79" target="1X8LrqAUc5PAFHGcHuet-100" edge="1">
          <mxGeometry width="160" relative="1" as="geometry">
            <mxPoint x="-40" y="269.99960784313726" as="sourcePoint" />
            <mxPoint x="-410" y="351.98" as="targetPoint" />
            <Array as="points">
              <mxPoint x="-130" y="310" />
            </Array>
          </mxGeometry>
        </mxCell>
        <mxCell id="1X8LrqAUc5PAFHGcHuet-157" value="Use" style="endArrow=open;endSize=12;dashed=1;html=1;rounded=0;" parent="WIyWlLk6GJQsqaUBKTNV-1" source="1X8LrqAUc5PAFHGcHuet-91" target="1X8LrqAUc5PAFHGcHuet-100" edge="1">
          <mxGeometry width="160" relative="1" as="geometry">
            <mxPoint x="-90" y="420" as="sourcePoint" />
            <mxPoint x="-250" y="420" as="targetPoint" />
          </mxGeometry>
        </mxCell>
        <mxCell id="1X8LrqAUc5PAFHGcHuet-158" value="Use" style="endArrow=open;endSize=12;dashed=1;html=1;rounded=0;" parent="WIyWlLk6GJQsqaUBKTNV-1" source="1X8LrqAUc5PAFHGcHuet-70" target="1X8LrqAUc5PAFHGcHuet-100" edge="1">
          <mxGeometry width="160" relative="1" as="geometry">
            <mxPoint x="-90" y="420" as="sourcePoint" />
            <mxPoint x="-250" y="420" as="targetPoint" />
          </mxGeometry>
        </mxCell>
        <mxCell id="1X8LrqAUc5PAFHGcHuet-159" value="Use" style="endArrow=open;endSize=12;dashed=1;html=1;rounded=0;" parent="WIyWlLk6GJQsqaUBKTNV-1" source="1X8LrqAUc5PAFHGcHuet-52" target="1X8LrqAUc5PAFHGcHuet-100" edge="1">
          <mxGeometry width="160" relative="1" as="geometry">
            <mxPoint x="-90" y="580" as="sourcePoint" />
            <mxPoint x="-250" y="570" as="targetPoint" />
            <Array as="points">
              <mxPoint x="-150" y="610" />
            </Array>
          </mxGeometry>
        </mxCell>
        <mxCell id="1X8LrqAUc5PAFHGcHuet-160" value="Use" style="endArrow=open;endSize=12;dashed=1;html=1;rounded=0;" parent="WIyWlLk6GJQsqaUBKTNV-1" source="1X8LrqAUc5PAFHGcHuet-137" target="1X8LrqAUc5PAFHGcHuet-100" edge="1">
          <mxGeometry width="160" relative="1" as="geometry">
            <mxPoint x="-250" y="700" as="sourcePoint" />
            <mxPoint x="-90" y="700" as="targetPoint" />
          </mxGeometry>
        </mxCell>
      </root>
    </mxGraphModel>
  </diagram>
</mxfile>
